<?xml version="1.0" encoding="UTF-8" standalone="no"?>
<!-- Created with Inkscape (http://www.inkscape.org/) -->

<svg
   width="100mm"
   height="100mm"
   viewBox="0 0 100 100"
   version="1.1"
   id="svg1"
   xmlns="http://www.w3.org/2000/svg"
   xmlns:svg="http://www.w3.org/2000/svg">
  <defs
     id="defs1" />
  <g
     id="layer1">
    <path
       id="path13"
       style="color:#000000;display:none;fill:#ffffff;stroke-width:1.36328;stroke-linejoin:round;-inkscape-stroke:none"
       d="M 49.697055,0.00387733 C 48.725032,0.06463831 47.873015,0.83418481 47.873142,1.8740943 V 29.187249 A 20.995579,20.995578 0 0 0 29.004604,50.030385 20.995579,20.995578 0 0 0 49.999994,71.025773 20.995579,20.995578 0 0 0 70.995382,50.030385 20.995579,20.995578 0 0 0 51.768183,29.114261 V 18.671504 l 17.912634,-5.914372 c 1.63774,-0.540572 1.781664,-2.712168 0.22838,-3.4476944 L 50.681998,0.19537265 C 50.358436,0.04202967 50.021062,-0.01637678 49.697055,0.00387733 Z" />
    <path
       style="fill:#ffffff;fill-opacity:1;stroke:none;stroke-width:3.94395;stroke-linecap:butt;stroke-linejoin:round;stroke-dasharray:none;stroke-opacity:1"
       d="m 0,50.126204 c 4.9983641,0 7.6966793,6.189956 12.280906,6.189956 4.677693,0 7.853606,-6.31616 12.531299,-6.31616 4.677693,0 7.853606,6.31616 12.531299,6.31616 4.677694,0 7.853606,-6.31616 12.5313,-6.31616 4.677694,0 7.853607,6.31616 12.531301,6.31616 4.677693,0 7.853606,-6.31616 12.531299,-6.31616 4.677693,0 7.853604,6.31616 12.531297,6.31616 C 92.146394,56.31616 95.833707,50 100,50 V 0 H 0 Z"
       id="path14" />
  </g>
</svg>
